<svg xmlns="http://www.w3.org/2000/svg" xmlns:xlink="http://www.w3.org/1999/xlink" width="66px" height="337px" viewBox="0 0 66 337" version="1.1">
    <!-- Generator: Sketch 56.3 (81716) - https://sketch.com -->
    <title>编组 3</title>
    <desc>Created with Sketch.</desc>
    <defs>
        <polygon id="path-1" points="0.167628245 0.233673774 12.6733659 0.233673774 12.6733659 12.7396125 0.167628245 12.7396125"/>
        <polygon id="path-3" points="0.469346394 0.782900095 20.0353974 0.782900095 20.0353974 13.974716 0.469346394 13.974716"/>
        <polygon id="path-5" points="3.48165941e-13 0.0931568042 19.9995392 0.0931568042 19.9995392 27.5160667 3.48165941e-13 27.5160667"/>
    </defs>
    <g id="页面-1" stroke="none" stroke-width="1" fill="none" fill-rule="evenodd">
        <g id="编组-3" transform="translate(-2.000000, -2.000000)">
            <g id="ic-event">
                <g id="编组-2" transform="translate(2.000000, 2.000000)">
                    <circle id="椭圆形" stroke="#6DBFFF" cx="33" cy="33" r="32.5"/>
                    <g id="sheji-备份-2" transform="translate(18.291380, 19.154372)">
                        <g id="编组" transform="translate(0.000000, 15.664390)">
                            <mask id="mask-2" fill="white">
                                <use xlink:href="#path-1"/>
                            </mask>
                            <g id="Clip-8"/>
                            <polygon id="Fill-7" fill="#6BBEFF" mask="url(#mask-2)" points="0.167628245 5.87570526 5.80932447 0.233673774 7.78130315 2.20565245 4.11125034 5.87570526 7.03166964 8.79545403 10.7013872 5.12607174 12.6733659 7.09805042 7.03166964 12.7397466"/>
                        </g>
                        <path d="M6.33909678,4.25752275 C5.85833897,4.32826187 5.41479463,4.55020167 5.06478686,4.89953893 C4.17669241,5.78763338 4.17635716,7.23258885 5.06378109,8.12068329 L20.2502296,23.304785 L24.0081196,23.8411954 L23.471374,20.0839759 L8.28459019,4.89886842 C7.86250227,4.47476896 7.27647392,4.23137275 6.67737058,4.23137275 L6.33909678,4.231708 L6.33909678,4.25752275 Z M25.9063419,27.3432847 C25.8288976,27.3432847 25.7511181,27.3379206 25.6743444,27.3271924 L19.2662518,26.4116069 C18.9236197,26.36333 18.6004324,26.2030774 18.3556952,25.9600164 L2.79174785,10.3940576 C1.75446427,9.35677397 1.18352246,7.97786403 1.18352246,6.51111688 C1.18352246,5.04436974 1.75446427,3.66545979 2.79174785,2.62851146 C3.81126284,1.60597917 5.22369843,1.01961557 6.66697762,1.01961557 L6.88120652,1.01961557 C8.27419724,1.07057455 9.57096935,1.63581699 10.5566234,2.62415313 L26.122247,18.1917883 C26.366649,18.4361903 26.5282426,18.758707 26.5765196,19.1003334 L27.4927756,25.5070849 C27.5035038,25.5811766 27.5088679,25.656274 27.5092077,25.7310362 C27.5102089,26.1604998 27.3442569,26.5648191 27.0415203,26.869232 C26.739119,27.1736449 26.3358054,27.3419437 25.9063419,27.3432847 L25.9063419,27.3432847 Z" id="Fill-1" fill="#6BBEFF"/>
                        <path d="M7.50431424,14.2029065 L14.3700319,7.33718887 L16.3423458,9.3088323 L9.47662817,16.1748852 L7.50431424,14.2029065 Z M12.3963769,19.0953045 L19.2620946,12.2292516 L21.2344086,14.2015655 L14.3686909,21.0672832 L12.3963769,19.0953045 Z" id="Fill-3" fill="#6BBEFF"/>
                        <polygon id="Fill-5" fill="#6BBEFF" points="20.9574532 10.5340942 24.6278412 6.86370613 21.7074219 3.94395736 18.0373691 7.61401016 16.0657257 5.64203148 21.7074219 3.55271368e-15 28.5714633 6.86370613 22.9297671 12.5060729"/>
                    </g>
                </g>
            </g>
            <g id="ic-pro-2" transform="translate(0.000000, 180.000000)">
                <g id="ic-pro" transform="translate(2.000000, 2.000000)">
                    <circle id="椭圆形" stroke="#EC414D" cx="33" cy="33" r="32.5"/>
                    <g id="编组备份-2" transform="translate(19.701493, 20.139446)">
                        <path d="M6.36925092,19.7811793 L6.36925092,15.3300947 C6.36925092,7.44602846 12.7863375,1.0316771 20.6740507,1.0316771 L25.1321252,1.0316771 L25.1321252,5.47972251 C25.1321252,13.3656123 18.7150386,19.7811793 10.8273254,19.7811793 L6.36925092,19.7811793 Z" id="Fill-1" fill="#EC414D"/>
                        <g id="编组" transform="translate(5.581193, 12.184284)">
                            <mask id="mask-4" fill="white">
                                <use xlink:href="#path-3"/>
                            </mask>
                            <g id="Clip-4"/>
                            <path d="M5.33010332,8.90675237 L0.469346394,8.90675237 C3.85035932,12.0507145 8.37620602,13.9747768 13.3539688,13.9747768 L20.0354581,13.9747768 L20.0354581,7.30422822 C20.0354581,5.01152157 19.628521,2.81637043 18.8821149,0.782900095 C16.2897517,5.6135698 11.1889049,8.90675237 5.33010332,8.90675237" id="Fill-3" fill="#EC414D" mask="url(#mask-4)"/>
                        </g>
                        <path d="M5.0595149,15.2463976 C5.0595149,9.38881167 8.35391311,4.28796484 13.1894454,1.69803296 C11.1590142,0.952842515 8.9656865,0.547120963 6.67875416,0.547120963 L-6.57252031e-14,0.547120963 L-6.57252031e-14,7.22010081 C-6.57252031e-14,12.196344 1.92163099,16.7200633 5.0595149,20.0989489 L5.0595149,15.2463976 Z" id="Fill-5" fill="#EC414D"/>
                    </g>
                </g>
            </g>
            <g id="ic-muse-2" transform="translate(0.000000, 90.000000)">
                <g id="ic-muse" transform="translate(2.000000, 2.000000)">
                    <circle id="椭圆形" stroke="#1951FF" cx="33" cy="33" r="32.5"/>
                    <path d="M47.5192594,37.1686443 C46.9220408,37.7919234 46.132161,38.1353629 45.2951242,38.1353629 C44.4580874,38.1353629 43.6682076,37.7919234 43.0709889,37.1686443 L40.7460246,34.7400587 L40.7522295,34.7332333 L34.6640122,28.3974418 L36.9548498,26.0169439 C37.5440021,25.4020414 38.3341921,25.0632556 39.1808465,25.0632556 L39.1898435,25.0632556 C40.0352569,25.0632556 40.8248264,25.4020414 41.4139787,26.0172542 L47.5192594,32.3797266 C48.7831911,33.6998124 48.7831911,35.8482483 47.5192594,37.1686443 L47.5192594,37.1686443 Z M35.2764328,37.1729877 C34.6562561,37.820776 33.8657559,38.1772458 33.0420595,38.1772458 C32.2276705,38.1772458 31.4377907,37.820776 30.818855,37.1742287 L28.5348428,34.7751162 L28.5463218,34.7630167 L24.7123334,30.7590149 C24.6903061,30.7360569 24.671071,30.7109271 24.6496643,30.6870384 C24.5984741,30.6305741 24.5472839,30.5741098 24.5007474,30.5148533 C24.4728255,30.4794855 24.4483163,30.4419461 24.4216353,30.4053374 C24.3847164,30.3541472 24.3468667,30.3035775 24.3127399,30.2508361 C24.2885409,30.2129864 24.2671341,30.1732753 24.2444863,30.1344948 C24.2125312,30.0805125 24.1805762,30.0268404 24.152344,29.971617 C24.1324884,29.9334571 24.1151148,29.8940562 24.0968104,29.8552757 C24.069509,29.7966397 24.0422076,29.7380037 24.0183189,29.6781267 C24.0034272,29.641518 23.9903969,29.604599 23.9770565,29.5676801 C23.9537882,29.5031494 23.9314507,29.4383086 23.9119054,29.3728472 C23.9019776,29.3390307 23.8929805,29.3049039 23.8836732,29.2707771 C23.8653688,29.2000416 23.8483054,29.1289959 23.8340343,29.0573296 C23.8281396,29.027236 23.8225552,28.9971424 23.8175913,28.9667385 C23.8042509,28.8897982 23.7933924,28.8125475 23.785326,28.7349867 C23.7825338,28.708616 23.7797416,28.6822453 23.7778802,28.6561849 C23.7707446,28.5736601 23.7673319,28.4911353 23.7664012,28.4083003 C23.7660909,28.3859628 23.7654705,28.3636253 23.7656961,28.3409775 C23.7660909,28.2544196 23.7704343,28.1678617 23.7775699,28.0813038 C23.7791212,28.0620687 23.7794314,28.0428336 23.7812929,28.0239087 C23.7902899,27.9342484 23.8030099,27.8452085 23.8182118,27.7567891 C23.8213143,27.740036 23.8231757,27.7235931 23.8262782,27.7071502 C23.8433416,27.6168693 23.8647484,27.5278295 23.8889473,27.4390998 C23.8929805,27.4238979 23.8957727,27.408696 23.9001161,27.3934941 C23.9258663,27.3032132 23.9565804,27.2144836 23.9894662,27.1263745 C23.9944301,27.113034 23.998153,27.0996935 24.0031169,27.0866633 C24.0418974,26.9870751 24.0853314,26.8890382 24.1334192,26.7928628 C24.1480006,26.7636999 24.1659947,26.7363984 24.1811967,26.7075458 C24.2162542,26.6433254 24.2506912,26.5787948 24.2894716,26.5164359 C24.3189447,26.4695891 24.3521408,26.4246038 24.3840959,26.378998 C24.4179124,26.3299795 24.4501777,26.2800303 24.4870967,26.2325631 L24.4923708,26.2257377 C24.5609346,26.1379389 24.6338418,26.0529322 24.7123334,25.9713381 C25.3083111,25.3486795 26.0981909,25.0058605 26.9361584,25.0058605 C27.7722645,25.0058605 28.5621443,25.3499205 29.1599834,25.9747508 L31.4796736,28.4008545 L31.4768814,28.4036467 L33.2601607,30.2595229 L37.5744059,34.7565016 L35.2764328,37.1729877 Z M23.065251,37.1686443 C22.4680324,37.7922336 21.6781526,38.1353629 20.8411158,38.1353629 C20.004079,38.1353629 19.2141992,37.7922336 18.6172908,37.1686443 C17.3530488,35.8482483 17.3530488,33.6998124 18.6172908,32.3797266 L21.551263,29.3157624 C21.5559167,29.344615 21.5636728,29.3731574 21.5686367,29.4020101 C21.5782542,29.4547515 21.5903537,29.5068724 21.600902,29.5593035 C21.6210678,29.655479 21.6427848,29.7507237 21.6679146,29.8456582 C21.6899418,29.9319059 21.7141408,30.0175331 21.7402013,30.1031603 C21.7547827,30.1496968 21.7712256,30.1956128 21.787048,30.2418391 C22.0461013,31.0146555 22.4643095,31.7412456 23.0547027,32.3576993 L25.3610525,34.7707728 L23.065251,37.1686443 Z M49.1765798,30.8058616 L43.0712992,24.4443199 C42.0549417,23.3823566 40.6768403,22.797858 39.1786748,22.797858 C37.6922984,22.797858 36.3138868,23.3823566 35.2984601,24.4427687 L33.0780478,26.7441545 L30.8179243,24.3841327 C29.7848137,23.3054163 28.4064021,22.7113001 26.9361584,22.7113001 C25.4687069,22.7113001 24.0899851,23.3069675 23.055013,24.3884761 C22.9327771,24.5159862 22.8195382,24.6490806 22.7115735,24.7852775 L16.9596601,30.7922109 C14.8571403,32.9878037 14.8574506,36.5605672 16.9596601,38.7558498 C17.9937015,39.8358072 19.3721131,40.4305439 20.841426,40.4305439 C22.3101185,40.4305439 23.6888403,39.8358072 24.7228817,38.7558498 L26.9485681,36.4315059 L29.1602936,38.7456117 C30.208296,39.8398403 31.5863973,40.4426434 33.0401981,40.4426434 L33.0526078,40.4426434 C34.5076495,40.4426434 35.8860611,39.8398403 36.9353044,38.744681 L39.1622319,36.4045147 L41.4133582,38.7558498 C42.4473996,39.8358072 43.8261215,40.4305439 45.2951242,40.4305439 C46.7684703,40.4305439 48.1468819,39.8382891 49.1768901,38.7629854 C51.2772382,36.569254 51.2772382,32.9999032 49.1765798,30.8058616 L49.1765798,30.8058616 Z" id="Fill-1备份" fill="#1951FF"/>
                </g>
            </g>
            <g id="ic-live-2" transform="translate(0.000000, 270.000000)">
                <g id="ic-live" transform="translate(2.000000, 2.000000)">
                    <circle id="椭圆形" stroke="#FF6036" cx="33" cy="33.5" r="32.5"/>
                    <g id="编组备份-3" transform="translate(19.701493, 20.256076)">
                        <polygon id="Fill-1" fill="#FF6036" points="19.5521214 0.339607937 19.5521214 3.63092734 24.3541723 3.63092734 24.3541723 8.43297826 27.6451602 8.43297826 27.6451602 0.339607937"/>
                        <g id="编组" transform="translate(0.000000, 0.238395)">
                            <mask id="mask-6" fill="white">
                                <use xlink:href="#path-5"/>
                            </mask>
                            <g id="Clip-3"/>
                            <path d="M7.46878876,24.3336513 C6.44704759,24.3316622 4.54479227,24.3266894 3.18125514,24.3227112 L3.18125514,19.9748411 L7.11373205,16.0516467 L7.14157963,16.0794943 L9.13334504,18.06695 C9.17909464,18.112368 9.2274964,18.1534764 9.27689271,18.1925956 C10.0254623,18.9590673 10.9689651,19.5335895 12.0261788,19.8369292 L12.0470644,19.832288 L7.46878876,24.3336513 Z M3.18125514,3.28651238 C4.54479227,3.28253415 6.44704759,3.27756137 7.46878876,3.27557226 L12.0470644,7.77693556 L12.0261788,7.77229429 C10.9689651,8.07563406 10.0254623,8.65015628 9.27689271,9.41662792 C9.2274964,9.45574715 9.17909464,9.49685549 9.13334504,9.54227357 L7.14157963,11.5297292 L7.11373205,11.5575768 L3.18125514,7.63438244 L3.18125514,3.28651238 Z M13.7126153,16.9215522 C11.9893802,16.9215522 10.5916966,15.5268523 10.5863923,13.8046118 C10.5916966,12.0823712 11.9893802,10.6876713 13.7126153,10.6876713 C15.4361819,10.6876713 16.8338655,12.0823712 16.8391698,13.8046118 C16.8338655,15.5268523 15.4361819,16.9215522 13.7126153,16.9215522 L13.7126153,16.9215522 Z M19.9995392,13.8274866 C19.9995392,13.8201932 19.9992077,13.8119052 19.9992077,13.8046118 C19.9992077,13.7973183 19.9995392,13.7890304 19.9995392,13.781737 C19.9995392,13.7648295 19.9982132,13.747922 19.9982132,13.7306831 C19.9975501,13.6918953 19.9962241,13.6527761 19.994898,13.6119993 C19.9474908,11.8489819 19.1670953,10.2673054 17.9474374,9.15837471 C15.3841335,6.54434838 8.77000035,0.0929910448 8.77000035,0.0929910448 L3.48165941e-13,0.113876734 L3.48165941e-13,8.95449061 L4.8613928,13.8046118 L3.48165941e-13,18.6547329 L3.48165941e-13,27.4953468 L8.77000035,27.5162325 C8.77000035,27.5162325 15.3841335,21.0648752 17.9474374,18.4508488 C19.1670953,17.3419182 19.9474908,15.7602416 19.994898,13.9972242 C19.9962241,13.9564474 19.9975501,13.9173282 19.9982132,13.8785405 C19.9982132,13.8613015 19.9995392,13.844394 19.9995392,13.8274866 L19.9995392,13.8274866 Z" id="Fill-2" fill="#FF6036" mask="url(#mask-6)"/>
                        </g>
                    </g>
                </g>
            </g>
        </g>
    </g>
</svg>